<svg width="48.000000" height="48.000000" viewBox="0 0 48 48" fill="none" xmlns="http://www.w3.org/2000/svg" xmlns:xlink="http://www.w3.org/1999/xlink">
	<desc>
			Created with Pixso.
	</desc>
	<defs>
		<clipPath id="clip11_10274">
			<rect id="Chat" rx="-0.500000" width="47.000000" height="47.000000" transform="translate(0.500000 0.500000)" fill="white" fill-opacity="0"/>
		</clipPath>
	</defs>
	<g clip-path="url(#clip11_10274)">
		<path id="Vector" d="M24.04 4C35.39 4 44 13.31 44 23.97C44 36.32 33.91 44 24 44C20.72 44 17.08 43.11 14.15 41.39C13.13 40.77 12.28 40.31 11.17 40.67L7.13 41.87C6.12 42.19 5.19 41.39 5.5 40.31L6.84 35.82C7.06 35.2 7.02 34.54 6.69 34.02C4.97 30.86 4 27.39 4 24.03C4 13.49 12.41 4 24.04 4ZM33.17 21.48C31.76 21.48 30.62 22.62 30.62 24.05C30.62 25.45 31.76 26.61 33.17 26.61C34.6 26.61 35.74 25.45 35.74 24.05C35.74 22.62 34.6 21.48 33.17 21.48ZM23.96 21.48C22.56 21.46 21.39 22.62 21.39 24.03C21.39 25.45 22.54 26.59 23.96 26.61C25.37 26.61 26.52 25.45 26.52 24.05C26.52 22.62 25.37 21.48 23.96 21.48ZM14.74 21.48C13.32 21.48 12.17 22.62 12.17 24.05C12.17 25.45 13.34 26.61 14.74 26.61C16.15 26.59 17.29 25.45 17.29 24.05C17.29 22.62 16.15 21.48 14.74 21.48Z" fill="#5FB3F6" fill-opacity="1.000000" fill-rule="nonzero"/>
	</g>
</svg>
